<?xml version="1.0" encoding="UTF-8" standalone="no"?>
<!DOCTYPE svg PUBLIC "-//W3C//DTD SVG 1.1//EN" "http://www.w3.org/Graphics/SVG/1.1/DTD/svg11.dtd">
<svg width="100%" height="100%" viewBox="0 0 6000 10667" version="1.1" xmlns="http://www.w3.org/2000/svg" xmlnsXlink="http://www.w3.org/1999/xlink" xmlSpace="preserve" xmlnsSerif="http://www.serif.com/" style="fill-rule:evenodd;clip-rule:evenodd;stroke-linejoin:round;stroke-miterlimit:2;">
    <g transform="matrix(5.55556,0,0,5.55556,0,0)">
        <g transform="matrix(3.27676,0,0,3.27676,-937.687,-505.695)">
            <g>
                <g transform="matrix(0.360844,0.208333,-2.67078e-17,0.555556,297.919,197.306)">
                    <rect x="390" y="260" width="40" height="466" style="fill:rgb(231,188,136);"/>
                </g>
                <g transform="matrix(0.0749797,0.0432895,-5.54961e-18,0.555556,409.406,261.673)">
                    <path d="M430,260L390,260L390,726L486.251,726L486.251,652.1C486.251,608.735 430,516.512 430,465.812C430,415.112 456.674,357.507 456.674,323.205C456.674,295.126 430,260 430,260Z" style="fill:rgb(235,200,158);"/>
                </g>
                <g transform="matrix(0.481125,-0.277778,2.67078e-17,0.555556,305.376,286.611)">
                    <rect x="307" y="414" width="30" height="466" style="fill:rgb(200,138,63);"/>
                </g>
                <g transform="matrix(0.101036,-0.0583333,2.82233e-17,0.555556,433.629,212.564)">
                    <path d="M337,414L307,414C307,414 287.205,456.447 287.205,479.141C287.205,513.744 310.661,573.81 307,621.619C303.126,672.212 263.96,739.637 263.96,782.7L263.96,880L337,880L337,414Z" style="fill:rgb(174,118,50);"/>
                </g>
                <g transform="matrix(0.709877,0,0,0.555556,189.896,212.222)">
                    <path d="M370.749,278.6C420.835,278.6 393,338.596 393,361.5C393,374.113 395.902,391.586 391.082,399.2C389.481,401.727 388.074,392.651 382.646,390.2C379.52,388.789 374.498,402.982 370.749,402.8C365.003,402.521 360.701,388.4 358.698,388.4C351.928,388.4 354.542,411.539 350.416,402.8C346.974,395.509 348,371.918 348,361.5C348,338.596 320.663,278.6 370.749,278.6Z" style="fill:rgb(204,26,38);"/>
                </g>
            </g>
        </g>
    </g>
</svg>
