<?xml version="1.0" encoding="UTF-8" standalone="no"?>
<!DOCTYPE svg PUBLIC "-//W3C//DTD SVG 1.1//EN" "http://www.w3.org/Graphics/SVG/1.1/DTD/svg11.dtd">
<svg width="100%" height="100%" viewBox="0 0 6000 10667" version="1.1" xmlns="http://www.w3.org/2000/svg" xmlnsXlink="http://www.w3.org/1999/xlink" xmlSpace="preserve" xmlnsSerif="http://www.serif.com/" style="fill-rule:evenodd;clip-rule:evenodd;stroke-linejoin:round;stroke-miterlimit:2;">
    <g transform="matrix(5.55556,0,0,5.55556,0,0)">
        <g transform="matrix(3.28036,0,0,3.28036,-842.204,-616.426)">
            <g transform="matrix(1,0,0,1,-313.059,6.92054)">
                <path d="M739.353,459C683.002,457.909 662.144,409.597 668.059,364.079C672.342,331.115 719.933,306.135 731,284C744,258 726.367,229.159 729.309,231.079C738.366,236.993 765.223,255.859 773,270C784,290 770.661,325.405 781,330C790,334 790.167,311 792,315C793.833,319 797,337 790,355C783.921,370.633 806,399 801,415.236C798.354,423.827 791,460 739.353,459Z" style="fill:rgb(240,128,71);"/>
            </g>
            <g transform="matrix(0.691692,0,0,0.636319,-88.4384,161.868)">
                <path d="M737.097,470.1C680.746,469.009 657.447,403.813 666.123,364.242C680.127,300.371 723.499,276.798 740.077,253.225C756.61,229.716 756.89,181.326 759.642,184.078C761.818,186.253 774.894,227.076 777.08,243.065C780.418,267.48 772.246,314.148 782.584,318.743C791.584,322.743 807.352,306.36 807.352,307.736C807.352,312.136 799.096,332.503 796.344,350.391C793.793,366.969 803.744,397.716 798.744,413.952C796.099,422.543 788.744,471.1 737.097,470.1Z" style="fill:rgb(246,163,66);"/>
            </g>
            <g transform="matrix(0.94284,0,0,0.812977,-276.529,73.1915)">
                <path d="M744.434,331.877C743.434,331.877 751.139,349.783 739.818,357.877C724.434,368.877 714.626,377.877 705,399C698.269,413.77 697.049,469.683 740.044,470.877C776.044,471.877 778,435.829 778,422C778,412 770.641,403.065 763.151,384.769C758.575,373.591 763.434,364.877 759.434,349.877C755.666,335.75 744.434,331.877 744.434,331.877Z" style="fill:rgb(253,199,90);"/>
            </g>
            <g transform="matrix(1,0,0,1,-29.6151,33)">
                <g transform="matrix(0.360844,0.208333,-2.67078e-17,0.555556,297.919,197.306)">
                    <rect x="390" y="260" width="40" height="466" style="fill:rgb(231,188,136);"/>
                </g>
                <g transform="matrix(0.0749797,0.0432895,-5.54961e-18,0.555556,409.406,261.673)">
                    <path d="M430,260L390,260L390,726L486.251,726L486.251,652.1C486.251,608.735 430,516.512 430,465.812C430,415.112 456.674,357.507 456.674,323.205C456.674,295.126 430,260 430,260Z" style="fill:rgb(235,200,158);"/>
                </g>
                <g transform="matrix(0.481125,-0.277778,2.67078e-17,0.555556,305.376,286.611)">
                    <rect x="307" y="414" width="30" height="466" style="fill:rgb(200,138,63);"/>
                </g>
                <g transform="matrix(0.101036,-0.0583333,2.82233e-17,0.555556,433.629,212.564)">
                    <path d="M337,414L307,414C307,414 287.205,456.447 287.205,479.141C287.205,513.744 310.661,573.81 307,621.619C303.126,672.212 263.96,739.637 263.96,782.7L263.96,880L337,880L337,414Z" style="fill:rgb(174,118,50);"/>
                </g>
                <g transform="matrix(0.709877,0,0,0.555556,189.896,212.222)">
                    <path d="M370.749,278.6C420.835,278.6 393,338.596 393,361.5C393,374.113 395.902,391.586 391.082,399.2C389.481,401.727 388.074,392.651 382.646,390.2C379.52,388.789 374.498,402.982 370.749,402.8C365.003,402.521 360.701,388.4 358.698,388.4C351.928,388.4 354.542,411.539 350.416,402.8C346.974,395.509 348,371.918 348,361.5C348,338.596 320.663,278.6 370.749,278.6Z" style="fill:rgb(204,26,38);"/>
                </g>
            </g>
            <g transform="matrix(1,0,0,1,-315,4.06184)">
                <path d="M762,412C754.322,413.312 747.071,411.342 740,408C742.9,417.21 750.188,423.465 763,426L762,412Z" style="fill:rgb(253,199,90);"/>
            </g>
            <g transform="matrix(-1.0601,-0.201846,0.121108,-0.920252,1155.66,968.64)">
                <path d="M762,412C754.322,413.312 747.071,411.342 740,408C742.9,417.21 750.188,423.465 763,426L762,412Z" style="fill:rgb(253,199,90);"/>
            </g>
        </g>
    </g>
</svg>
